<svg data-v-0dd9719b="" version="1.0" xmlns="http://www.w3.org/2000/svg" xmlns:xlink="http://www.w3.org/1999/xlink" width="100%" height="100%" viewBox="0 0 340.000000 250.000000" preserveAspectRatio="xMidYMid meet" color-interpolation-filters="sRGB" style="margin: auto;"> <rect data-v-0dd9719b="" x="0" y="0" width="100%" height="100%" fill="#feffff" fill-opacity="1" class="background"></rect> <rect data-v-0dd9719b="" x="0" y="0" width="100%" height="100%" fill="url(#watermark)" fill-opacity="1" class="watermarklayer"></rect> <g data-v-0dd9719b="" fill="#333" class="iconlinesvg-g iconlinesvg" transform="translate(73.68181610107422,108.96830177307129)"><g class="tp-name"><g transform="translate(0, 1.0563950856016007)"><g><g class="imagesvg"><g><rect fill="#333" fill-opacity="0" stroke-width="2" x="0" y="0" width="31.716422287390028" height="29.94544846516044" class="image-rect"></rect> <svg x="0" y="0" width="31.716422287390028" height="29.94544846516044" filtersec="colorsb1358297853" class="image-svg-svg primary" style="overflow: visible;"><svg xmlns="http://www.w3.org/2000/svg" viewBox="0 0 98.5 93"><title>页面-1 (2)</title><g fill-rule="evenodd"><path d="M98.12 48h.38v45h-31V64.91c14.03-.85 25.77-7.62 30.62-16.91zM31 0v28.09C17 28.94 5.23 35.71.38 45H0V0z" fill="#0092b6"></path><path d="M45 33a59.71 59.71 0 0 1 15.5 2C43.28 39.64 31 51.77 31 66v27H0V65c.74-17.76 20.6-32 45-32z" fill="#ec0033"></path><path d="M98.5 0v28c-.72 17.76-20.58 32-45 32A59.71 59.71 0 0 1 38 58c17.22-4.63 29.5-16.76 29.5-31V0z" fill="#ec0033"></path></g></svg></svg> <!----></g></g></g></g><g transform="translate(35, 0)"><g data-gra="path-name" fill="#333" transform="scale(1)"><path d="M5.05-12.68L5.05-12.68L2.18-12.68Q2.32-18.82 9.68-18.82L9.68-18.82Q16.23-18.55 16.36-13.64L16.36-13.64L16.36-3.14Q16.36-2.05 17.45-2.05L17.45-2.05Q17.59-2.05 17.86-2.05L17.86-2.05Q18.27-2.18 18.55-2.18L18.55-2.18L18.55 0Q18.27 0 17.86 0L17.86 0Q17.18 0.14 16.77 0.14L16.77 0.14Q13.50 0.14 13.64-2.45L13.64-2.45Q10.91 0.27 6.95 0.27L6.95 0.27Q1.50 0 1.23-4.77L1.23-4.77Q1.36-9.68 6.82-10.50L6.82-10.50L11.86-11.05Q13.50-11.32 13.50-13.23L13.50-13.23Q13.50-16.23 9.14-16.23L9.14-16.23Q5.32-16.23 5.05-12.68ZM13.36-6.27L13.36-6.27L13.36-9.27Q12.27-8.59 8.32-8.05L8.32-8.05Q4.50-7.77 4.50-5.18L4.50-5.18Q4.50-2.05 7.64-2.05L7.64-2.05Q12.95-2.45 13.36-6.27Z" transform="translate(-1.227272727272727, 24.954545454545457)"></path></g></g><g transform="translate(56, 0)"><g data-gra="path-name" fill="#333" transform="scale(1)"><path d="M4.91-8.18L4.91-8.18Q5.05-2.45 9.95-2.05L9.95-2.05Q14.73-2.18 14.86-9.14L14.86-9.14Q15.00-15.95 9.82-15.95L9.82-15.95Q4.91-15.95 4.91-8.18ZM5.05 6.95L2.05 6.95L2.05-18.27L4.91-18.27L4.91-15.68L5.05-15.68Q5.05-15.68 5.18-15.82L5.18-15.82Q7.09-18.82 10.36-18.82L10.36-18.82Q17.59-18.41 18-9.68L18-9.68Q17.59 0 9.95 0.27L9.95 0.27Q6.82 0.27 5.18-1.91L5.18-1.91L5.05-1.91L5.05 6.95Z" transform="translate(-2.0454545454545454, 24.954545454545457)"></path></g></g><g transform="translate(75, 0)"><g data-gra="path-name" fill="#333" transform="scale(1)"><path d="M4.91-8.18L4.91-8.18Q5.05-2.45 9.95-2.05L9.95-2.05Q14.73-2.18 14.86-9.14L14.86-9.14Q15.00-15.95 9.82-15.95L9.82-15.95Q4.91-15.95 4.91-8.18ZM5.05 6.95L2.05 6.95L2.05-18.27L4.91-18.27L4.91-15.68L5.05-15.68Q5.05-15.68 5.18-15.82L5.18-15.82Q7.09-18.82 10.36-18.82L10.36-18.82Q17.59-18.41 18-9.68L18-9.68Q17.59 0 9.95 0.27L9.95 0.27Q6.82 0.27 5.18-1.91L5.18-1.91L5.05-1.91L5.05 6.95Z" transform="translate(-2.0454545454545454, 24.954545454545457)"></path></g></g><g transform="translate(94, 0)"><g data-gra="path-name" fill="#333" transform="scale(1)"><path d="M8.73-3.27L8.86-3.27L13.64-18.27L17.05-18.27Q16.36-16.50 15.14-12.95L15.14-12.95Q12.14-4.64 10.50-0.41L10.50-0.41Q8.18 5.32 7.23 6L7.23 6Q6.27 7.23 3.27 7.09L3.27 7.09Q2.73 7.09 2.05 6.82L2.05 6.82L2.05 4.09Q2.18 4.09 2.32 4.23L2.32 4.23Q3.14 4.50 3.82 4.50L3.82 4.50Q5.59 5.18 7.09 0.27L7.09 0.27L0.41-18.27L3.82-18.27L8.73-3.27Z" transform="translate(-0.40909090909090906, 24.954545454545457)"></path></g></g><g transform="translate(114, 0)"><g data-gra="path-name" fill="#333" transform="scale(1)"><path d="M6.41-3L21.41-3L21.41 0L3 0L3-24.95L21.14-24.95L21.14-22.09L6.41-22.09L6.41-14.32L20.05-14.32L20.05-11.32L6.41-11.32L6.41-3Z" transform="translate(-3, 24.954545454545457)"></path></g></g><g transform="translate(136, 0)"><g data-gra="path-name" fill="#333" transform="scale(1)"><path d="M5.05-12.68L5.05-12.68L2.18-12.68Q2.32-18.82 9.68-18.82L9.68-18.82Q16.23-18.55 16.36-13.64L16.36-13.64L16.36-3.14Q16.36-2.05 17.45-2.05L17.45-2.05Q17.59-2.05 17.86-2.05L17.86-2.05Q18.27-2.18 18.55-2.18L18.55-2.18L18.55 0Q18.27 0 17.86 0L17.86 0Q17.18 0.14 16.77 0.14L16.77 0.14Q13.50 0.14 13.64-2.45L13.64-2.45Q10.91 0.27 6.95 0.27L6.95 0.27Q1.50 0 1.23-4.77L1.23-4.77Q1.36-9.68 6.82-10.50L6.82-10.50L11.86-11.05Q13.50-11.32 13.50-13.23L13.50-13.23Q13.50-16.23 9.14-16.23L9.14-16.23Q5.32-16.23 5.05-12.68ZM13.36-6.27L13.36-6.27L13.36-9.27Q12.27-8.59 8.32-8.05L8.32-8.05Q4.50-7.77 4.50-5.18L4.50-5.18Q4.50-2.05 7.64-2.05L7.64-2.05Q12.95-2.45 13.36-6.27Z" transform="translate(-1.227272727272727, 24.954545454545457)"></path></g></g><g transform="translate(157, 0)"><g data-gra="path-name" fill="#333" transform="scale(1)"><path d="M15.55-12.95L15.55-12.95L12.55-12.95Q12.55-16.09 8.18-16.09L8.18-16.09Q4.77-15.95 4.64-13.50L4.64-13.50Q4.36-11.73 7.91-11.05L7.91-11.05L11.05-10.36Q16.23-9.14 16.09-5.45L16.09-5.45Q15.82 0 9 0.27L9 0.27Q1.23 0.27 1.09-5.86L1.09-5.86L3.95-5.86Q4.23-2.05 9-2.05L9-2.05Q12.95-2.18 13.09-5.05L13.09-5.05Q13.36-6.68 9.55-7.64L9.55-7.64L5.86-8.45Q1.64-9.55 1.64-12.82L1.64-12.82Q1.91-18.41 8.59-18.82L8.59-18.82Q15.14-18.68 15.55-12.95Z" transform="translate(-1.0909090909090908, 24.954545454545457)"></path></g></g><g transform="translate(176, 0)"><g data-gra="path-name" fill="#333" transform="scale(1)"><path d="M14.73-5.73L14.73-5.73L17.73-5.73Q17.18-2.59 14.45-0.68L14.45-0.68Q12.95 0.27 9.55 0.27L9.55 0.27Q1.77 0 1.36-8.59L1.36-8.59Q1.64-18.55 10.09-18.82L10.09-18.82Q17.86-18.68 18-8.05L18-8.05L4.64-8.05Q4.64-2.05 9.95-2.05L9.95-2.05Q13.77-2.32 14.73-5.73ZM4.64-10.50L4.64-10.50L14.86-10.50Q14.45-15.95 9.68-15.95L9.68-15.95Q5.18-15.55 4.64-10.50Z" transform="translate(-1.3636363636363635, 24.954545454545457)"></path></g></g></g> <!----></g><defs v-gra="od"></defs></svg>